<?xml version="1.0" standalone="no"?>
<!DOCTYPE svg PUBLIC "-//W3C//DTD SVG 20010904//EN"
 "http://www.w3.org/TR/2001/REC-SVG-20010904/DTD/svg10.dtd">
<svg version="1.0" xmlns="http://www.w3.org/2000/svg"
 width="640.000000pt" height="640.000000pt" viewBox="0 0 640.000000 640.000000"
 preserveAspectRatio="xMidYMid meet">
<metadata>
Created by potrace 1.11, written by Peter Selinger 2001-2013
</metadata>
<g transform="translate(0.000000,640.000000) scale(0.100000,-0.100000)"
fill="#000000" stroke="none">
<path d="M2632 6374 c-70 -35 -110 -85 -119 -149 -11 -72 -5 -112 20 -161 16
-31 87 -104 87 -90 0 5 11 1 25 -8 13 -9 39 -16 56 -16 18 0 29 -3 26 -6 -4
-4 -46 -8 -94 -10 -48 -1 -110 -5 -138 -8 -117 -13 -161 -19 -180 -23 -28 -7
-55 -12 -92 -17 -17 -3 -51 -10 -75 -16 -24 -7 -50 -13 -58 -15 -78 -15 -376
-120 -401 -141 -8 -8 -21 -14 -27 -14 -13 0 -219 -106 -232 -120 -3 -3 -34
-23 -70 -45 -36 -21 -69 -43 -75 -47 -33 -27 -57 -45 -81 -63 -119 -86 -271
-233 -297 -286 -9 -20 -18 -58 -20 -85 -10 -134 87 -237 223 -238 72 0 129 30
217 114 37 36 106 95 153 131 83 64 242 169 256 169 4 0 23 10 43 22 20 13 38
23 41 23 3 1 32 14 65 29 33 15 76 34 95 41 19 7 44 16 55 21 11 4 22 8 25 9
108 34 132 41 190 55 54 14 62 15 120 25 25 4 54 9 65 11 138 26 465 23 630
-7 33 -6 69 -13 80 -14 72 -12 284 -77 370 -113 133 -56 400 -211 457 -265 7
-6 36 -30 63 -52 73 -58 242 -229 312 -315 101 -124 240 -355 278 -460 7 -19
21 -53 31 -75 10 -22 19 -45 20 -52 1 -6 13 -47 27 -90 29 -93 49 -175 63
-263 3 -19 7 -46 10 -60 21 -122 21 -455 -1 -554 -2 -11 -6 -34 -9 -51 -6 -46
-34 -176 -46 -215 -6 -19 -13 -42 -15 -50 -6 -26 -45 -132 -78 -210 -88 -211
-224 -421 -381 -586 -95 -101 -119 -143 -122 -212 -2 -53 22 -142 38 -142 4 0
8 -6 8 -13 0 -20 109 -87 144 -88 62 -3 97 1 117 12 41 22 14 -10 -66 -76 -44
-37 -100 -81 -125 -98 -25 -17 -47 -33 -50 -37 -3 -3 -27 -20 -55 -38 -27 -17
-54 -35 -60 -40 -9 -7 -86 -51 -185 -104 -57 -30 -221 -102 -280 -123 -106
-37 -136 -47 -260 -79 -183 -49 -326 -68 -595 -79 -86 -3 -123 -14 -165 -49
-21 -18 -74 -88 -66 -88 4 0 2 -9 -4 -21 -6 -11 -12 -44 -12 -72 -2 -83 47
-161 127 -202 42 -22 137 -26 323 -13 50 3 92 3 92 -1 0 -4 -26 -9 -57 -11
-99 -7 -475 -4 -533 4 -30 4 -73 9 -95 11 -22 2 -40 4 -40 5 0 1 -13 3 -30 5
-27 4 -57 9 -120 21 -542 104 -1072 377 -1470 755 -97 92 -119 109 -159 121
-159 45 -302 -58 -300 -217 0 -36 7 -75 18 -97 27 -56 181 -206 336 -327 36
-28 76 -60 88 -71 13 -11 27 -20 32 -20 5 0 10 -3 12 -8 9 -21 418 -272 443
-272 6 0 17 -6 23 -12 7 -7 16 -13 20 -13 4 0 43 -18 87 -39 121 -58 330 -136
470 -176 90 -25 145 -40 167 -44 12 -2 41 -9 63 -14 22 -6 56 -13 75 -16 19
-3 46 -8 60 -11 14 -3 41 -7 60 -10 19 -3 45 -7 57 -9 77 -16 196 -21 483 -21
289 0 396 5 480 21 14 2 39 6 55 9 128 17 397 82 541 131 69 23 230 84 304
117 14 5 27 11 30 11 15 4 259 131 282 147 14 11 29 19 32 19 13 0 259 161
264 173 2 4 8 7 13 7 6 0 24 13 42 30 18 16 36 30 40 30 4 0 19 10 32 23 14
12 40 34 58 48 117 96 310 283 405 394 24 28 53 61 66 75 12 14 36 43 52 65
33 45 54 72 70 89 5 6 13 18 17 26 7 15 109 166 125 185 5 6 23 37 42 70 86
154 118 215 112 215 -4 0 -2 4 4 8 5 4 18 25 28 47 9 22 21 47 26 56 12 24 73
174 103 254 62 170 113 357 151 561 2 12 8 45 11 75 4 30 9 65 12 79 14 91 18
180 18 455 0 342 -4 395 -41 600 -24 130 -25 136 -50 235 -37 144 -38 147 -47
170 -3 8 -13 40 -23 70 -30 98 -101 275 -153 383 -28 58 -51 109 -51 112 0 3
-11 22 -23 43 -13 20 -39 64 -57 97 -73 133 -230 359 -337 484 -21 25 -47 55
-58 68 -66 79 -196 204 -226 216 -52 23 -155 16 -206 -12 -104 -59 -138 -189
-78 -304 l26 -50 -69 64 c-158 149 -382 313 -577 421 -118 66 -245 129 -245
121 0 -3 -6 0 -13 6 -18 14 -227 94 -307 116 -8 3 -46 14 -85 25 -38 11 -79
22 -90 25 -11 2 -29 6 -40 8 -11 3 -54 12 -95 20 -72 15 -96 19 -205 33 -27 3
-61 8 -75 10 -14 2 -97 6 -185 9 -158 5 -162 5 -213 -21z m158 -428 c0 -3 -4
-8 -10 -11 -5 -3 -10 -1 -10 4 0 6 5 11 10 11 6 0 10 -2 10 -4z m74 -7 c3 -3
-4 -5 -14 -6 -11 -1 -20 2 -20 7 0 8 25 8 34 -1z m73 -5 c-3 -3 -12 -4 -19 -1
-8 3 -5 6 6 6 11 1 17 -2 13 -5z m79 -12 c-10 -2 -22 0 -28 6 -6 6 0 7 19 4
21 -5 23 -7 9 -10z m167 -19 c-7 -2 -19 -2 -25 0 -7 3 -2 5 12 5 14 0 19 -2
13 -5z m117 -23 c18 -12 2 -12 -25 0 -13 6 -15 9 -5 9 8 0 22 -4 30 -9z m85
-20 c3 -5 1 -10 -4 -10 -6 0 -11 5 -11 10 0 6 2 10 4 10 3 0 8 -4 11 -10z m60
-20 c3 -6 -1 -7 -9 -4 -18 7 -21 14 -7 14 6 0 13 -4 16 -10z m125 -40 c0 -5
-2 -10 -4 -10 -3 0 -8 5 -11 10 -3 6 -1 10 4 10 6 0 11 -4 11 -10z m211 -87
c13 -17 13 -17 -6 -3 -11 8 -22 16 -24 17 -2 2 0 3 6 3 6 0 17 -8 24 -17z
m1080 -200 c13 -16 12 -17 -3 -4 -10 7 -18 15 -18 17 0 8 8 3 21 -13z m140
-150 c13 -16 12 -17 -3 -4 -10 7 -18 15 -18 17 0 8 8 3 21 -13z m39 -48 c13
-14 21 -25 18 -25 -2 0 -15 11 -28 25 -13 14 -21 25 -18 25 2 0 15 -11 28 -25z
m60 -75 c12 -16 19 -30 16 -30 -2 0 -14 14 -26 30 -12 17 -19 30 -16 30 2 0
14 -13 26 -30z m41 -57 c13 -16 12 -17 -3 -4 -10 7 -18 15 -18 17 0 8 8 3 21
-13z m29 -33 c0 -5 -2 -10 -4 -10 -3 0 -8 5 -11 10 -3 6 -1 10 4 10 6 0 11 -4
11 -10z m44 -66 c5 -14 4 -15 -9 -4 -17 14 -19 20 -6 20 5 0 12 -7 15 -16z
m37 -56 c8 -15 8 -18 0 -14 -6 4 -16 16 -22 28 -8 15 -8 18 0 14 6 -4 16 -16
22 -28z m68 -115 c17 -29 27 -53 23 -53 -6 0 -71 109 -81 135 -5 17 25 -27 58
-82z m75 -135 c20 -38 32 -68 26 -68 -5 0 -10 4 -10 10 0 5 -13 32 -30 60 -16
28 -30 56 -30 62 0 15 0 14 44 -64z m55 -127 c0 -14 -1 -14 -6 -1 -3 8 -10 24
-15 35 -9 20 -9 20 6 1 9 -11 16 -27 15 -35z m24 -41 c3 -11 3 -20 1 -20 -2 0
-8 9 -14 20 -6 11 -7 20 -2 20 6 0 12 -9 15 -20z m45 -112 c18 -46 32 -90 32
-98 -1 -8 -11 14 -24 50 -13 36 -31 80 -40 98 -9 18 -13 32 -8 32 4 0 22 -37
40 -82z m62 -178 c9 -27 15 -50 13 -50 -5 0 -27 53 -38 90 -13 45 8 12 25 -40z
m33 -115 l6 -30 -14 30 c-16 34 -21 72 -6 45 5 -8 11 -28 14 -45z m17 -50 c0
-8 -2 -15 -4 -15 -2 0 -6 7 -10 15 -3 8 -1 15 4 15 6 0 10 -7 10 -15z m10 -35
c0 -5 -4 -10 -10 -10 -5 0 -10 5 -10 10 0 6 5 10 10 10 6 0 10 -4 10 -10z m9
-70 c0 -9 -4 -8 -9 5 -5 11 -9 27 -9 35 0 9 4 8 9 -5 5 -11 9 -27 9 -35z m11
-34 c0 -8 3 -21 6 -30 4 -10 1 -16 -7 -16 -7 0 -10 3 -6 6 3 3 2 17 -3 30 -6
15 -6 24 0 24 6 0 10 -6 10 -14z m7 -78 c-3 -8 -6 -5 -6 6 -1 11 2 17 5 13 3
-3 4 -12 1 -19z m18 -66 c7 -41 17 -157 12 -152 -2 3 -8 30 -11 60 -4 30 -9
71 -13 90 -3 19 -3 32 1 29 4 -4 8 -16 11 -27z m22 -182 c1 -11 -2 -20 -5 -20
-4 0 -8 9 -9 20 -1 11 2 20 5 20 4 0 8 -9 9 -20z m5 -112 c2 -27 0 -48 -4 -48
-5 0 -7 30 -7 68 2 69 6 62 11 -20z m8 -108 c0 -21 -3 -41 -7 -43 -5 -3 -8 17
-8 43 0 26 3 46 8 43 4 -2 7 -22 7 -43z m-5 -162 c-9 -183 -26 -333 -40 -346
-3 -3 -3 10 0 29 16 115 31 294 30 351 0 26 3 48 7 48 4 0 5 -37 3 -82z m-39
-380 c-3 -13 -10 -48 -16 -78 -13 -67 -14 -73 -41 -182 -12 -49 -25 -88 -29
-88 -4 0 5 48 21 107 16 58 31 125 34 147 3 23 10 55 15 73 4 17 5 34 2 37 -3
3 0 6 7 6 7 0 9 -9 7 -22z m-101 -405 c-53 -179 -210 -528 -278 -617 -24 -33
-77 -119 -77 -127 0 -5 -4 -9 -10 -9 -5 0 -10 -5 -10 -10 0 -6 -5 -16 -10 -23
-6 -7 -34 -43 -62 -82 -142 -193 -399 -457 -553 -567 -5 -5 -29 -23 -52 -40
-24 -18 -55 -42 -70 -54 -173 -131 -578 -333 -788 -394 -22 -6 -49 -15 -60
-20 -11 -4 -42 -14 -70 -20 -27 -7 -57 -14 -65 -18 -8 -3 -18 -5 -21 -4 -4 1
-22 -3 -40 -9 -19 -6 -45 -12 -59 -15 -14 -2 -34 -6 -46 -9 -12 -3 -39 -7 -60
-10 -21 -3 -45 -8 -51 -10 -7 -2 -13 -1 -13 4 0 5 21 12 48 16 172 25 443 104
653 190 403 164 823 468 1099 795 25 29 52 61 60 69 40 43 240 332 240 347 0
3 12 21 26 40 15 19 22 34 18 34 -5 0 -4 4 1 8 32 22 205 413 237 535 6 26 15
47 20 47 4 0 1 -21 -7 -47z m-2406 -2037 c-9 -10 -59 -14 -59 -6 0 5 12 10 28
12 28 4 39 1 31 -6z m-69 -8 c0 -4 -9 -8 -20 -8 -11 0 -20 4 -20 8 0 4 9 8 20
8 11 0 20 -4 20 -8z"/>
</g>
</svg>
